<?xml version="1.0" standalone="no"?>
<svg xmlns:xlink="http://www.w3.org/1999/xlink" xmlns="http://www.w3.org/2000/svg" version="1.1" class="simple-bar-chart" width="498" height="398" style="background-color: transparent; font-size: 13px; font-family: noto; user-select: none;"><defs><clipPath id="9v6r01dp9tahva"><rect x="-20" y="0" width="442.50439453125" height="279.125"/></clipPath><filter x="-10%" y="-10%" width="180%" height="180%" id="Drop_Shadow_simplebar" filterUnits="objectBoundingBox"><feGaussianBlur in="SourceAlpha" stdDeviation="0" result="blurredAlpha"/><feOffset in="blurredAlpha" dx="0.5" dy="0.7" result="offsetBlurredAlpha"/><feFlood result="flooded" style="flood-color: rgb(255, 255, 255); flood-opacity: 0.5;"/><feComposite in="flooded" in2="offsetBlurredAlpha" operator="in" result="coloredShadow"/><feComposite in="SourceGraphic" in2="coloredShadow" operator="over"/></filter></defs><g class="svg-group" transform="translate(0,20)"><g class="main-group" transform="translate(0,37)"><g class="core-group" transform="translate(71.99560546875,0)" clip-path="url(#9v6r01dp9tahva)"><g class="plane-grid"><g style="fill: none; stroke: rgb(204, 204, 204); stroke-dasharray: 3, 3; pointer-events: none;"><line class="grid-x-line" x1="0" y1="242.40833333333333" x2="402.50439453125" y2="242.40833333333333"/><line class="grid-x-line" x1="0" y1="205.19166666666666" x2="402.50439453125" y2="205.19166666666666"/><line class="grid-x-line" x1="0" y1="167.975" x2="402.50439453125" y2="167.975"/><line class="grid-x-line" x1="0" y1="130.75833333333333" x2="402.50439453125" y2="130.75833333333333"/><line class="grid-x-line" x1="0" y1="93.54166666666669" x2="402.50439453125" y2="93.54166666666669"/><line class="grid-x-line" x1="0" y1="56.32499999999999" x2="402.50439453125" y2="56.32499999999999"/><line class="grid-x-line" x1="0" y1="19.10833333333335" x2="402.50439453125" y2="19.10833333333335"/><line class="grid-x-line" x1="0" y1="279.625" x2="402.50439453125" y2="279.625"/></g></g><g class="simple-bar-plot"><g><path class="rect" d="&#10;    M10.06260986328125 91.73908333333333&#10;    A0 0 0 0 1 10.06260986328125 91.73908333333333&#10;    H30.187829589843748&#10;    A0 0 0 0 1 30.187829589843748 91.73908333333333&#10;    V279.125&#10;    A0 0 0 0 1 30.187829589843748 279.125&#10;    H10.06260986328125&#10;    A0 0 0 0 1 10.06260986328125 279.125&#10;    Z&#10;  " style="fill: rgb(65, 80, 216); stroke-width: 0; stroke: none;"/><path class="rect" d="&#10;    M50.31304931640625 93.59991666666664&#10;    A0 0 0 0 1 50.31304931640625 93.59991666666664&#10;    H70.43826904296876&#10;    A0 0 0 0 1 70.43826904296876 93.59991666666664&#10;    V279.125&#10;    A0 0 0 0 1 70.43826904296876 279.125&#10;    H50.31304931640625&#10;    A0 0 0 0 1 50.31304931640625 279.125&#10;    Z&#10;  " style="fill: rgb(65, 80, 216); stroke-width: 0; stroke: none;"/><path class="rect" d="&#10;    M90.56348876953125 91.92516666666668&#10;    A0 0 0 0 1 90.56348876953125 91.92516666666668&#10;    H110.68870849609374&#10;    A0 0 0 0 1 110.68870849609374 91.92516666666668&#10;    V279.125&#10;    A0 0 0 0 1 110.68870849609374 279.125&#10;    H90.56348876953125&#10;    A0 0 0 0 1 90.56348876953125 279.125&#10;    Z&#10;  " style="fill: rgb(65, 80, 216); stroke-width: 0; stroke: none;"/><path class="rect" d="&#10;    M130.81392822265624 83.73750000000001&#10;    A0 0 0 0 1 130.81392822265624 83.73750000000001&#10;    H150.93914794921875&#10;    A0 0 0 0 1 150.93914794921875 83.73750000000001&#10;    V279.125&#10;    A0 0 0 0 1 150.93914794921875 279.125&#10;    H130.81392822265624&#10;    A0 0 0 0 1 130.81392822265624 279.125&#10;    Z&#10;  " style="fill: rgb(65, 80, 216); stroke-width: 0; stroke: none;"/><path class="rect" d="&#10;    M171.06436767578123 60.849249999999984&#10;    A0 0 0 0 1 171.06436767578123 60.849249999999984&#10;    H191.18958740234373&#10;    A0 0 0 0 1 191.18958740234373 60.849249999999984&#10;    V279.125&#10;    A0 0 0 0 1 191.18958740234373 279.125&#10;    H171.06436767578123&#10;    A0 0 0 0 1 171.06436767578123 279.125&#10;    Z&#10;  " style="fill: rgb(65, 80, 216); stroke-width: 0; stroke: none;"/><path class="rect" d="&#10;    M211.31480712890624 63.6405&#10;    A0 0 0 0 1 211.31480712890624 63.6405&#10;    H231.44002685546874&#10;    A0 0 0 0 1 231.44002685546874 63.6405&#10;    V279.125&#10;    A0 0 0 0 1 231.44002685546874 279.125&#10;    H211.31480712890624&#10;    A0 0 0 0 1 211.31480712890624 279.125&#10;    Z&#10;  " style="fill: rgb(65, 80, 216); stroke-width: 0; stroke: none;"/><path class="rect" d="&#10;    M251.56524658203122 58.988416666666666&#10;    A0 0 0 0 1 251.56524658203122 58.988416666666666&#10;    H271.6904663085937&#10;    A0 0 0 0 1 271.6904663085937 58.988416666666666&#10;    V279.125&#10;    A0 0 0 0 1 271.6904663085937 279.125&#10;    H251.56524658203122&#10;    A0 0 0 0 1 251.56524658203122 279.125&#10;    Z&#10;  " style="fill: rgb(65, 80, 216); stroke-width: 0; stroke: none;"/><path class="rect" d="&#10;    M291.8156860351562 49.87033333333332&#10;    A0 0 0 0 1 291.8156860351562 49.87033333333332&#10;    H311.9409057617187&#10;    A0 0 0 0 1 311.9409057617187 49.87033333333332&#10;    V279.125&#10;    A0 0 0 0 1 311.9409057617187 279.125&#10;    H291.8156860351562&#10;    A0 0 0 0 1 291.8156860351562 279.125&#10;    Z&#10;  " style="fill: rgb(65, 80, 216); stroke-width: 0; stroke: none;"/><path class="rect" d="&#10;    M332.0661254882812 52.103333333333325&#10;    A0 0 0 0 1 332.0661254882812 52.103333333333325&#10;    H352.1913452148437&#10;    A0 0 0 0 1 352.1913452148437 52.103333333333325&#10;    V279.125&#10;    A0 0 0 0 1 352.1913452148437 279.125&#10;    H332.0661254882812&#10;    A0 0 0 0 1 332.0661254882812 279.125&#10;    Z&#10;  " style="fill: rgb(65, 80, 216); stroke-width: 0; stroke: none;"/><path class="rect" d="&#10;    M372.3165649414062 42.98524999999998&#10;    A0 0 0 0 1 372.3165649414062 42.98524999999998&#10;    H392.4417846679687&#10;    A0 0 0 0 1 392.4417846679687 42.98524999999998&#10;    V279.125&#10;    A0 0 0 0 1 392.4417846679687 279.125&#10;    H372.3165649414062&#10;    A0 0 0 0 1 372.3165649414062 279.125&#10;    Z&#10;  " style="fill: rgb(65, 80, 216); stroke-width: 0; stroke: none;"/><text class="simple-bar-texts" fill="#000000" font-size="12" x="10.06260986328125" y="91.73908333333333" dx="10.06260986328125" dy="-6" text-anchor="middle" transform="rotate(0)" style="font-family: &quot;Droid Sans Fallback&quot;; display: block; opacity: 1; visibility: visible;">100.7</text><text class="simple-bar-texts" fill="#000000" font-size="12" x="50.31304931640625" y="93.59991666666664" dx="10.06260986328125" dy="-6" text-anchor="middle" transform="rotate(0)" style="font-family: &quot;Droid Sans Fallback&quot;; display: block; opacity: 1; visibility: visible;">99.7</text><text class="simple-bar-texts" fill="#000000" font-size="12" x="90.56348876953125" y="91.92516666666668" dx="10.06260986328125" dy="-6" text-anchor="middle" transform="rotate(0)" style="font-family: &quot;Droid Sans Fallback&quot;; display: block; opacity: 1; visibility: visible;">100.6</text><text class="simple-bar-texts" fill="#000000" font-size="12" x="130.81392822265624" y="83.73750000000001" dx="10.06260986328125" dy="-6" text-anchor="middle" transform="rotate(0)" style="font-family: &quot;Droid Sans Fallback&quot;; display: block; opacity: 1; visibility: visible;">105</text><text class="simple-bar-texts" fill="#000000" font-size="12" x="171.06436767578123" y="60.849249999999984" dx="10.06260986328125" dy="-6" text-anchor="middle" transform="rotate(0)" style="font-family: &quot;Droid Sans Fallback&quot;; display: block; opacity: 1; visibility: visible;">117.3</text><text class="simple-bar-texts" fill="#000000" font-size="12" x="211.31480712890624" y="63.6405" dx="10.06260986328125" dy="-6" text-anchor="middle" transform="rotate(0)" style="font-family: &quot;Droid Sans Fallback&quot;; display: block; opacity: 1; visibility: visible;">115.8</text><text class="simple-bar-texts" fill="#000000" font-size="12" x="251.56524658203122" y="58.988416666666666" dx="10.06260986328125" dy="-6" text-anchor="middle" transform="rotate(0)" style="font-family: &quot;Droid Sans Fallback&quot;; display: block; opacity: 1; visibility: visible;">118.3</text><text class="simple-bar-texts" fill="#000000" font-size="12" x="291.8156860351562" y="49.87033333333332" dx="10.06260986328125" dy="-6" text-anchor="middle" transform="rotate(0)" style="font-family: &quot;Droid Sans Fallback&quot;; display: block; opacity: 1; visibility: visible;">123.2</text><text class="simple-bar-texts" fill="#000000" font-size="12" x="332.0661254882812" y="52.103333333333325" dx="10.06260986328125" dy="-6" text-anchor="middle" transform="rotate(0)" style="font-family: &quot;Droid Sans Fallback&quot;; display: block; opacity: 1; visibility: visible;">122</text><text class="simple-bar-texts" fill="#000000" font-size="12" x="372.3165649414062" y="42.98524999999998" dx="10.06260986328125" dy="-6" text-anchor="middle" transform="rotate(0)" style="font-family: &quot;Droid Sans Fallback&quot;; display: block; opacity: 1; visibility: visible;">126.9</text></g></g></g><g class="axis-x-line" transform="translate(71.49560546875,279.125)"><g><g class="axis-group" fill="none" font-size="10" font-family="sans-serif" text-anchor="middle" style="font-size: 13px; font-family: noto;"><path class="domain" stroke="#000" d="M0.5,0V0.5H403.00439453125V0" style="stroke: rgb(161, 161, 161); display: block;"/><g class="tick" opacity="1" transform="translate(20.1252197265625,0)"><line stroke="#000" y2="5" style="stroke: rgb(161, 161, 161);"/><text fill="#000" y="8" dy="0.9em" dx="0" transform="rotate(0)" style="fill: rgb(84, 84, 84); text-anchor: middle;">2008</text></g><g class="tick" opacity="1" transform="translate(60.375659179687496,0)"><line stroke="#000" y2="5" style="stroke: rgb(161, 161, 161);"/><text fill="#000" y="8" dy="0.9em" dx="0" transform="rotate(0)" style="fill: rgb(84, 84, 84); text-anchor: middle;">2009</text></g><g class="tick" opacity="1" transform="translate(100.6260986328125,0)"><line stroke="#000" y2="5" style="stroke: rgb(161, 161, 161);"/><text fill="#000" y="8" dy="0.9em" dx="0" transform="rotate(0)" style="fill: rgb(84, 84, 84); text-anchor: middle;">2010</text></g><g class="tick" opacity="1" transform="translate(140.87653808593748,0)"><line stroke="#000" y2="5" style="stroke: rgb(161, 161, 161);"/><text fill="#000" y="8" dy="0.9em" dx="0" transform="rotate(0)" style="fill: rgb(84, 84, 84); text-anchor: middle;">2011</text></g><g class="tick" opacity="1" transform="translate(181.1269775390625,0)"><line stroke="#000" y2="5" style="stroke: rgb(161, 161, 161);"/><text fill="#000" y="8" dy="0.9em" dx="0" transform="rotate(0)" style="fill: rgb(84, 84, 84); text-anchor: middle;">2012</text></g><g class="tick" opacity="1" transform="translate(221.3774169921875,0)"><line stroke="#000" y2="5" style="stroke: rgb(161, 161, 161);"/><text fill="#000" y="8" dy="0.9em" dx="0" transform="rotate(0)" style="fill: rgb(84, 84, 84); text-anchor: middle;">2013</text></g><g class="tick" opacity="1" transform="translate(261.6278564453125,0)"><line stroke="#000" y2="5" style="stroke: rgb(161, 161, 161);"/><text fill="#000" y="8" dy="0.9em" dx="0" transform="rotate(0)" style="fill: rgb(84, 84, 84); text-anchor: middle;">2014</text></g><g class="tick" opacity="1" transform="translate(301.87829589843744,0)"><line stroke="#000" y2="5" style="stroke: rgb(161, 161, 161);"/><text fill="#000" y="8" dy="0.9em" dx="0" transform="rotate(0)" style="fill: rgb(84, 84, 84); text-anchor: middle;">2015</text></g><g class="tick" opacity="1" transform="translate(342.12873535156245,0)"><line stroke="#000" y2="5" style="stroke: rgb(161, 161, 161);"/><text fill="#000" y="8" dy="0.9em" dx="0" transform="rotate(0)" style="fill: rgb(84, 84, 84); text-anchor: middle;">2016</text></g><g class="tick" opacity="1" transform="translate(382.37917480468747,0)"><line stroke="#000" y2="5" style="stroke: rgb(161, 161, 161);"/><text fill="#000" y="8" dy="0.9em" dx="0" transform="rotate(0)" style="fill: rgb(84, 84, 84); text-anchor: middle;">2017</text></g></g><g class="x-title" transform="translate(201.252197265625,22.625)"><text text-anchor="middle" dy="14.612499999999999" style="font-size: 13px; font-family: noto; fill: rgb(84, 84, 84);">年份</text></g></g></g><g class="axis-y-line" transform="translate(71.49560546875,0)"><g><g class="axis-group" fill="none" font-size="10" font-family="sans-serif" text-anchor="end"><path class="domain" stroke="#000" d="M0,279.625H0.5V0.5H0" style="stroke: rgb(161, 161, 161); display: none;"/><g class="tick" opacity="1" transform="translate(0,279.625)"><line stroke="#000" x2="-5" style="stroke: rgb(161, 161, 161); display: none;"/><text fill="#000" x="-7" dy="0.32em" style="font-size: 13px; font-family: noto; fill: rgb(84, 84, 84);">0</text></g><g class="tick" opacity="1" transform="translate(0,242.40833333333333)"><line stroke="#000" x2="-5" style="stroke: rgb(161, 161, 161); display: none;"/><text fill="#000" x="-7" dy="0.32em" style="font-size: 13px; font-family: noto; fill: rgb(84, 84, 84);">20</text></g><g class="tick" opacity="1" transform="translate(0,205.19166666666666)"><line stroke="#000" x2="-5" style="stroke: rgb(161, 161, 161); display: none;"/><text fill="#000" x="-7" dy="0.32em" style="font-size: 13px; font-family: noto; fill: rgb(84, 84, 84);">40</text></g><g class="tick" opacity="1" transform="translate(0,167.975)"><line stroke="#000" x2="-5" style="stroke: rgb(161, 161, 161); display: none;"/><text fill="#000" x="-7" dy="0.32em" style="font-size: 13px; font-family: noto; fill: rgb(84, 84, 84);">60</text></g><g class="tick" opacity="1" transform="translate(0,130.75833333333333)"><line stroke="#000" x2="-5" style="stroke: rgb(161, 161, 161); display: none;"/><text fill="#000" x="-7" dy="0.32em" style="font-size: 13px; font-family: noto; fill: rgb(84, 84, 84);">80</text></g><g class="tick" opacity="1" transform="translate(0,93.54166666666669)"><line stroke="#000" x2="-5" style="stroke: rgb(161, 161, 161); display: none;"/><text fill="#000" x="-7" dy="0.32em" style="font-size: 13px; font-family: noto; fill: rgb(84, 84, 84);">100</text></g><g class="tick" opacity="1" transform="translate(0,56.32499999999999)"><line stroke="#000" x2="-5" style="stroke: rgb(161, 161, 161); display: none;"/><text fill="#000" x="-7" dy="0.32em" style="font-size: 13px; font-family: noto; fill: rgb(84, 84, 84);">120</text></g><g class="tick" opacity="1" transform="translate(0,19.10833333333335)"><line stroke="#000" x2="-5" style="stroke: rgb(161, 161, 161); display: none;"/><text fill="#000" x="-7" dy="0.32em" style="font-size: 13px; font-family: noto; fill: rgb(84, 84, 84);">140</text></g><g class="tick" opacity="1" transform="translate(0,279.625)"><line stroke="#000" x2="-5" style="stroke: rgb(161, 161, 161); display: none;"/><text fill="#000" x="-7" dy="0.32em" style="font-size: 13px; font-family: noto; fill: rgb(84, 84, 84);">0</text></g></g><g class="y-title" transform="translate(-29.87060546875,139.5625)"><text y="-9" transform="rotate(-90)" style="font-size: 13px; font-family: noto; fill: rgb(84, 84, 84); text-anchor: middle;">罪犯人数（万人）</text></g></g></g></g><text dy="1em" transform="translate(249,0)" style="fill: rgb(0, 0, 0); font-size: 16px; font-family: &quot;Noto Sans&quot;; font-weight: bold; text-anchor: middle; display: block;">我国近年犯罪人数居高不下</text><text transform="translate(24,37)" style="display: none;"/><text transform="translate(24,360)" style="display: none;"/><g class="legend" transform="translate(12,360)" style="display: none;"><g/></g></g></svg>